# xmcd
#
# Track frame offsets: 
#        150
#        19717
#        37235
#        55832
#        69050
#        84862
#        96875
#        113707
#        132297
#        151240
#        166892
#        180742
#        199042
#        213505
#        233657
#        248102
#        266570
#        285967
#        302847
#        321957
#        335127
#
# Disc length: 4651 seconds
#
# Revision: 1
# Processed by: cddbd v1.5.2PL0 Copyright (c) Steve Scherf et al.
# Submitted via: ExactAudioCopy v0.99pb5
#
DISCID=1e122915
DTITLE=Various Artist - East Coast Blues and Roots Music Festival 1999
DYEAR=1999
DGENRE=Blues
TTITLE0=Keb Mo' - Muddy Water
TTITLE1=Ben Harper - Homeless Child
TTITLE2=Chris Wilson - Shoot Out
TTITLE3=John Hammond - Don't Start Me Talkin'
TTITLE4=Candye Kane - All You Can Eat (And You Can Eat It All Night Lo
TTITLE4=ng)
TTITLE5=Taj Mahal - Lovin' In My Baby's Eyes
TTITLE6=Renee Geyer - I'm The Woman Who Loves You
TTITLE7=Paul Kelly - Tease Me
TTITLE8=Jimmy Webb - Witchita Lineman
TTITLE9=Mollie O'Brien - Denver To Dallas
TTITLE10=Tony Joe White - Roosevelt and Ira Lee (Night Of The Mocassin)
TTITLE11=Archie Roach - Watching Over Me
TTITLE12=Jeff Lang - Bateman's Bay
TTITLE13=Vika and Linda - Carry Me
TTITLE14=Kenny Neal - Hoodoo Moon
TTITLE15=Dr. John - Ki Ya Gris Gris
TTITLE16=Robben Ford and The Blue Line - Chevrolet
TTITLE17=R.L. Burnside - Georgia Women
TTITLE18=Matt Walker and Ashley Davies - All By Myself
TTITLE19=Backsliders - Last Fair Deal
TTITLE20=Paladins - Let's Buzz
EXTD=
EXTT0=
EXTT1=
EXTT2=
EXTT3=
EXTT4=
EXTT5=
EXTT6=
EXTT7=
EXTT8=
EXTT9=
EXTT10=
EXTT11=
EXTT12=
EXTT13=
EXTT14=
EXTT15=
EXTT16=
EXTT17=
EXTT18=
EXTT19=
EXTT20=
PLAYORDER=
